# xmcd
#
# Track frame offsets: 
#        150
#        11896
#        23445
#        36038
#        52669
#        69874
#        85671
#        103848
#        116889
#        134475
#        150500
#        165797
#        180534
#        191821
#        203206
#        218755
#        235012
#        248519
#        263176
#        282820
#        297697
#        313175
#        329499
#
# Disc length: 4598 seconds
#
# Revision: 1
# Processed by: cddbd v1.5.2PL0 Copyright (c) Steve Scherf et al.
# Submitted via: ExactAudioCopy v1.1
#
DISCID=3e11f417
DTITLE=G.C. Cameron - Love Songs and Other Tragedies - Expanded
DYEAR=1974
DGENRE=R&B
TTITLE0=If You Don't Love Me
TTITLE1=Come Get This Thang
TTITLE2=I'm Gonna Give You Respect
TTITLE3=If You're Ever Gonna Love Me
TTITLE4=Let Me Down Easy
TTITLE5=All In Love Is Fair
TTITLE6=Riverboat
TTITLE7=Your Love Won't Turn Me Loose
TTITLE8=You Forgot To Remember Me
TTITLE9=Tippin'
TTITLE10=Act Like A Shotgun
TTITLE11=Girl I Really Love You
TTITLE12=I'm Gonna Get You (Part I)
TTITLE13=I'm Gonna Get You (Part II)
TTITLE14=You Are That Special One
TTITLE15=What It Is, What It Is
TTITLE16=My Woman
TTITLE17=Don't Wanna Play Pajama Games
TTITLE18=Jesus Help Me Find Another Way
TTITLE19=No Matter Where
TTITLE20=Have I Lost You
TTITLE21=Time
TTITLE22=Topics
EXTD=
EXTT0=
EXTT1=
EXTT2=
EXTT3=
EXTT4=
EXTT5=
EXTT6=
EXTT7=
EXTT8=
EXTT9=
EXTT10=
EXTT11=
EXTT12=
EXTT13=
EXTT14=
EXTT15=
EXTT16=
EXTT17=
EXTT18=
EXTT19=
EXTT20=
EXTT21=
EXTT22=
PLAYORDER=
